<svg width="400" height="400" viewBox="0 0 400 400" fill="none" xmlns="http://www.w3.org/2000/svg">
    <circle cx="200" cy="200" r="173" fill="#F4E788"/>
    <path fill-rule="evenodd" clip-rule="evenodd" d="M194.925 27.073C282.669 29.6771 353 101.625 353 190C353 280.022 280.022 353 190 353C101.625 353 29.6771 282.669 27.073 194.925C29.7091 103.413 103.413 29.7091 194.925 27.073Z" fill="#FAF0AA"/>
    <path fill-rule="evenodd" clip-rule="evenodd" d="M27.6798 184.558C35.0415 101.334 101.334 35.0416 184.558 27.6799C257.213 34.7441 314 95.9904 314 170.5C314 249.753 249.753 314 170.5 314C95.9903 314 34.7439 257.213 27.6798 184.558Z" fill="#FFFAC0"/>
    <circle cx="146" cy="191" r="20" fill="#252525"/>
    <circle cx="253" cy="191" r="20" fill="#252525"/>
    <path fill-rule="evenodd" clip-rule="evenodd" d="M181 209.5C183.485 209.5 185.5 211.515 185.5 214C185.5 221.34 191.651 227.5 199.5 227.5C207.349 227.5 213.5 221.34 213.5 214C213.5 211.515 215.515 209.5 218 209.5C220.485 209.5 222.5 211.515 222.5 214C222.5 226.542 212.086 236.5 199.5 236.5C186.914 236.5 176.5 226.542 176.5 214C176.5 211.515 178.515 209.5 181 209.5Z" fill="#252525"/>
    <ellipse cx="143" cy="227.5" rx="17" ry="7.5" fill="#FFBB8A"/>
    <ellipse cx="256" cy="227.5" rx="17" ry="7.5" fill="#FFBB8A"/>
    <circle cx="112.5" cy="91.5" r="13.5" fill="#F4E788"/>
    <circle cx="174" cy="126" r="6" fill="#F4E788"/>
    <circle cx="231" cy="72" r="6" fill="#F4E788"/>
    <circle cx="60" cy="149" r="6" fill="#F4E788"/>
    <circle cx="194" cy="165" r="6" fill="#F4E788"/>
    <circle cx="99" cy="268" r="6" fill="#F4E788"/>
    <circle cx="196" cy="332" r="6" fill="#F4E788"/>
    <circle cx="314" cy="255" r="6" fill="#F4E788"/>
    <circle cx="301" cy="165" r="6" fill="#F4E788"/>
    <circle cx="149" cy="52" r="6" fill="#F4E788"/>
    <circle cx="300.5" cy="118.5" r="13.5" fill="#F4E788"/>
    <circle cx="238.5" cy="293.5" r="13.5" fill="#F4E788"/>
    <circle cx="59.5" cy="248.5" r="13.5" fill="#F4E788"/>
</svg>
